<?xml version="1.0" standalone="no"?>
<!DOCTYPE svg PUBLIC "-//W3C//DTD SVG 20010904//EN"
 "http://www.w3.org/TR/2001/REC-SVG-20010904/DTD/svg10.dtd">
<svg version="1.0" xmlns="http://www.w3.org/2000/svg"
 width="225.000000pt" height="225.000000pt" viewBox="0 0 225.000000 225.000000"
 preserveAspectRatio="xMidYMid meet">
<metadata>
Created by potrace 1.14, written by Peter Selinger 2001-2017
</metadata>
<g transform="translate(0.000000,225.000000) scale(0.100000,-0.100000)"
fill="#000000" stroke="none">
<path d="M1527 1756 c-59 -38 -82 -46 -188 -66 -137 -25 -259 -78 -304 -132
-23 -28 -27 -29 -43 -15 -26 22 -91 52 -147 67 -67 18 -103 36 -148 76 -66 60
-77 47 -77 -88 0 -89 0 -90 -23 -84 -186 54 -338 -41 -383 -240 -13 -59 -20
-74 -34 -74 -10 0 -32 -12 -49 -26 -25 -21 -31 -33 -31 -65 0 -41 17 -66 69
-99 21 -14 24 -27 32 -115 5 -55 14 -115 19 -134 10 -37 3 -62 -11 -40 -5 8
-9 25 -10 39 0 24 -1 24 -10 4 -8 -16 -5 -32 11 -68 43 -91 151 -157 235 -143
l35 6 0 -75 0 -75 503 3 502 3 45 30 c29 20 53 47 69 78 20 41 27 47 53 47 39
0 95 34 104 63 l7 22 8 -23 c10 -26 98 -85 117 -77 7 2 10 0 7 -5 -9 -14 42
-25 120 -25 115 0 187 56 184 142 -1 23 -3 29 -6 15 -2 -12 -9 -20 -14 -17 -5
4 -9 2 -9 -4 0 -5 5 -13 10 -16 6 -3 10 -12 10 -18 0 -8 -3 -7 -9 2 -7 11 -9
11 -14 0 -3 -8 -6 7 -6 33 -1 38 -6 50 -28 68 -15 12 -40 24 -56 27 -43 9 -57
40 -73 161 -8 61 -22 130 -33 154 -21 50 -75 101 -123 117 -32 11 -33 12 -30
60 2 27 -2 75 -8 107 -17 79 -80 148 -157 170 -54 16 -54 16 -47 47 4 18 10
70 14 117 10 116 3 121 -83 66z m-16 -174 c-11 -37 -33 -86 -48 -108 -30 -44
-87 -97 -95 -88 -3 2 -11 -2 -18 -11 -7 -8 -18 -15 -24 -15 -6 0 -3 5 7 11 9
6 15 14 12 20 -9 14 -47 -10 -41 -26 4 -10 -2 -11 -25 -5 -18 5 -31 5 -35 -2
-7 -12 -51 -2 -69 16 -18 18 -2 42 53 78 l47 30 -45 -6 c-47 -7 -94 -32 -146
-78 -27 -24 -33 -26 -44 -13 -19 23 12 90 65 139 39 36 141 75 264 101 68 14
131 30 140 35 24 14 25 -3 2 -78z m-592 -78 c31 -19 80 -72 82 -88 5 -35 6
-79 2 -68 -3 6 -10 9 -16 5 -7 -3 -9 -3 -5 1 9 11 -53 63 -97 82 -45 18 -55
13 -20 -10 28 -18 35 -52 9 -42 -8 3 -12 2 -9 -4 3 -6 -4 -10 -16 -10 -17 0
-19 3 -10 14 8 10 9 16 1 21 -6 4 -10 3 -9 -2 1 -4 -1 -16 -5 -25 -28 -64
-136 70 -136 169 l0 42 102 -35 c55 -18 113 -41 127 -50z m749 -66 c86 -53 93
-202 15 -350 -15 -29 -30 -57 -32 -62 -2 -4 16 12 39 37 52 57 97 74 137 54
64 -34 79 -69 99 -232 9 -84 19 -127 32 -145 18 -24 64 -52 106 -65 30 -9 4
-26 -48 -32 -30 -4 -61 0 -90 11 -76 29 -106 78 -125 206 -6 41 -16 89 -22
107 -17 54 -54 52 -84 -7 -14 -28 -35 -157 -35 -220 0 -29 -5 -42 -20 -50 -31
-17 -91 16 -103 55 -15 52 -14 634 1 677 19 53 62 58 130 16z m-1032 -18 c51
-26 70 -41 72 -57 3 -21 -1 -23 -40 -23 -24 0 -65 7 -92 15 -79 24 -120 20
-150 -15 -23 -28 -30 -55 -39 -151 l-3 -37 56 -6 c62 -7 129 -41 113 -57 -6
-6 -46 -15 -89 -22 l-79 -12 3 -80 c2 -44 10 -116 18 -160 8 -44 17 -95 21
-112 5 -29 3 -33 -16 -33 -32 0 -76 25 -95 55 -25 38 -46 147 -46 241 l0 82
-47 23 c-59 29 -62 51 -10 60 20 3 40 9 43 12 3 3 13 41 21 83 22 117 66 188
138 221 52 23 142 12 221 -27z m279 -49 c7 -12 -12 -24 -25 -16 -11 7 -4 25
10 25 5 0 11 -4 15 -9z m123 -26 c-3 -3 -9 2 -12 12 -6 14 -5 15 5 6 7 -7 10
-15 7 -18z m119 -1 c-3 -3 -12 -4 -19 -1 -8 3 -5 6 6 6 11 1 17 -2 13 -5z
m258 -71 c16 -15 15 -18 -19 -35 -44 -23 -56 -44 -56 -101 0 -37 7 -54 39 -94
21 -26 55 -64 76 -83 108 -102 80 -187 -70 -213 -77 -13 -163 1 -207 33 -18
13 -29 16 -34 9 -11 -18 -87 -49 -122 -49 -18 0 -49 7 -70 15 -83 35 -121 101
-122 210 0 132 45 220 135 261 66 31 147 35 175 9 89 -81 4 -247 -143 -280
-26 -5 -28 -9 -22 -38 12 -57 31 -77 73 -77 46 0 82 27 96 71 11 34 70 83 90
76 6 -2 9 -13 8 -23 -12 -61 -7 -78 27 -101 40 -27 96 -30 129 -7 39 27 32 37
-91 140 -20 17 -50 48 -67 69 -59 75 -31 190 53 214 52 15 104 13 122 -6z
m-806 -37 c15 -8 40 -33 56 -56 27 -38 29 -40 49 -25 60 45 155 70 170 46 10
-15 -28 -52 -74 -75 -65 -31 -79 -63 -89 -198 -5 -63 -14 -124 -20 -136 -16
-29 -48 -45 -78 -37 -41 10 -53 57 -54 217 -1 79 -4 154 -8 168 -6 23 -31 41
-75 55 -15 4 -16 8 -5 21 28 34 83 43 128 20z m-125 -343 c4 -54 11 -102 16
-107 6 -6 10 -19 10 -30 0 -49 -20 7 -35 94 -17 108 -19 140 -6 140 4 0 11
-44 15 -97z m1266 -157 c0 -13 14 -43 32 -67 34 -46 43 -69 27 -69 -8 0 -13
15 -10 33 0 4 -6 7 -16 7 -9 0 -13 3 -10 7 9 9 -13 34 -24 27 -5 -3 -9 10 -9
30 0 19 -3 42 -7 52 -4 12 -3 15 5 10 7 -4 12 -17 12 -30z m-1243 -68 c-2 -13
-4 -3 -4 22 0 25 2 35 4 23 2 -13 2 -33 0 -45z m-258 24 c7 -14 6 -19 -4 -19
-7 0 -13 9 -12 19 1 10 2 18 4 18 1 0 7 -8 12 -18z m472 3 c10 -3 17 -14 16
-25 -1 -17 -9 -20 -49 -20 -36 0 -48 -4 -48 -15 0 -11 11 -15 40 -15 33 0 40
-3 40 -20 0 -17 -7 -20 -39 -20 -31 0 -44 -6 -60 -27 -12 -14 -23 -24 -25 -22
-4 4 -10 135 -7 155 1 12 101 18 132 9z m218 -9 c31 -16 51 -54 51 -94 0 -21
-2 -24 -10 -12 -8 12 -10 10 -10 -9 0 -13 -8 -30 -17 -37 -21 -15 -37 -18 -29
-5 4 5 -4 7 -16 4 -22 -6 -21 -4 5 20 29 28 33 47 17 78 -16 29 -80 23 -80 -8
0 -8 -3 -12 -7 -10 -5 3 -9 -6 -10 -20 -1 -19 1 -22 8 -12 7 11 9 11 9 -3 0
-9 6 -19 13 -21 6 -3 3 -6 -8 -7 -20 -1 -20 -1 -1 -15 16 -12 17 -15 4 -15
-22 0 -68 57 -68 84 0 28 35 74 64 86 31 13 54 12 85 -4z m262 -1 c31 -16 49
-49 49 -89 0 -24 -44 -76 -64 -76 -6 0 -4 5 4 10 11 7 6 9 -20 8 -19 -1 -44 2
-55 6 -20 8 -20 7 -1 -8 24 -19 0 -22 -25 -3 -48 37 -50 88 -5 133 38 38 70
43 117 19z m259 -13 c18 -14 26 -30 28 -60 2 -28 -1 -42 -9 -42 -7 0 -10 -3
-6 -6 13 -13 -21 -31 -56 -30 -36 1 -54 16 -19 16 42 0 60 70 23 90 -41 21
-51 13 -51 -41 0 -31 -6 -56 -15 -65 -9 -9 -15 -11 -15 -4 0 6 -4 8 -10 5 -6
-4 -10 24 -10 78 l0 84 57 -3 c37 -2 66 -10 83 -22z m250 -56 c0 -2 -8 -10
-17 -17 -16 -13 -17 -12 -4 4 13 16 21 21 21 13z"/>
<path d="M1465 1593 c-11 -45 -47 -123 -56 -123 -5 0 -9 -6 -9 -13 0 -8 -11
-20 -25 -27 -29 -15 -33 -30 -8 -30 9 0 14 2 11 5 -3 3 10 21 29 41 38 41 66
90 58 103 -3 5 -1 11 3 13 12 4 24 58 13 58 -5 0 -12 -12 -16 -27z"/>
<path d="M1165 1490 c-3 -6 1 -7 9 -4 18 7 21 14 7 14 -6 0 -13 -4 -16 -10z"/>
<path d="M1091 1444 c-23 -20 -40 -39 -37 -42 3 -3 26 14 51 37 55 51 45 55
-14 5z"/>
<path d="M1204 1395 c11 -8 31 -15 45 -14 26 1 23 3 -34 20 -28 8 -29 8 -11
-6z"/>
<path d="M724 1514 c14 -60 39 -113 49 -107 6 4 8 0 5 -9 -4 -10 0 -14 15 -12
33 4 34 5 8 15 -16 6 -21 14 -17 25 5 13 4 14 -7 5 -11 -9 -16 -3 -25 28 -7
21 -12 45 -12 54 0 9 -5 19 -11 23 -9 5 -10 -1 -5 -22z"/>
<path d="M940 1434 c14 -16 26 -31 28 -33 1 -2 2 3 2 11 0 9 -12 24 -27 33
l-28 18 25 -29z"/>
<path d="M1627 1393 c-13 -24 -18 -98 -11 -197 8 -122 13 -120 39 18 12 61 13
95 6 126 -10 44 -25 68 -34 53z"/>
<path d="M1022 1141 c-32 -32 -59 -88 -48 -99 4 -3 27 4 52 18 43 23 74 62 74
95 0 26 -46 17 -78 -14z"/>
<path d="M622 630 c0 -14 2 -19 5 -12 2 6 2 18 0 25 -3 6 -5 1 -5 -13z"/>
<path d="M971 614 c0 -11 3 -14 6 -6 3 7 2 16 -1 19 -3 4 -6 -2 -5 -13z"/>
<path d="M1205 660 c10 -11 20 -20 23 -20 3 0 -3 9 -13 20 -10 11 -20 20 -23
20 -3 0 3 -9 13 -20z"/>
<path d="M1125 642 c-24 -17 -47 -81 -25 -67 6 3 13 -1 16 -9 13 -35 84 -10
84 29 0 41 -45 69 -75 47z"/>
<path d="M1445 660 c10 -11 20 -20 23 -20 3 0 -3 9 -13 20 -10 11 -20 20 -23
20 -3 0 3 -9 13 -20z"/>
<path d="M1353 610 c0 -25 2 -35 4 -22 2 12 2 32 0 45 -2 12 -4 2 -4 -23z"/>
<path d="M151 944 c0 -11 3 -14 6 -6 3 7 2 16 -1 19 -3 4 -6 -2 -5 -13z"/>
<path d="M161 874 c0 -11 3 -14 6 -6 3 7 2 16 -1 19 -3 4 -6 -2 -5 -13z"/>
<path d="M170 800 c0 -19 3 -21 12 -12 9 9 9 15 0 24 -9 9 -12 7 -12 -12z"/>
<path d="M2070 792 c0 -4 10 -9 22 -9 18 -2 20 0 8 7 -18 12 -30 13 -30 2z"/>
<path d="M2116 765 c-3 -8 -1 -15 4 -15 13 0 22 18 11 24 -5 3 -11 -1 -15 -9z"/>
<path d="M2160 726 c0 -9 5 -16 10 -16 6 0 10 4 10 9 0 6 -4 13 -10 16 -5 3
-10 -1 -10 -9z"/>
</g>
</svg>
